<svg width="173" height="240" viewBox="0 0 173 240" fill="none" xmlns="http://www.w3.org/2000/svg">
<g filter="url(#filter0_d)">
<rect x="84.1342" y="75" width="105.021" height="105.021" rx="20" transform="rotate(46.4641 84.1342 75)" fill="#704CAF" fill-opacity="0.2"/>
<rect x="84.1342" y="75" width="105.021" height="105.021" rx="20" transform="rotate(46.4641 84.1342 75)" fill="url(#paint0_linear)" fill-opacity="0.5"/>
<rect x="84.1161" y="75.7069" width="104.021" height="104.021" rx="19.5" transform="rotate(46.4641 84.1161 75.7069)" stroke="black" stroke-opacity="0.1"/>
</g>
<rect x="41" width="83" height="161" rx="10" fill="#FDFDFD"/>
<rect x="41.5" y="0.5" width="82" height="160" rx="9.5" stroke="black" stroke-opacity="0.5"/>
<rect x="41.5" y="0.5" width="82" height="160" rx="9.5" stroke="black" stroke-opacity="0.5"/>
<rect x="45.5" y="7.5" width="74" height="134" rx="9.5" stroke="black" stroke-opacity="0.5"/>
<circle cx="81.5" cy="150.5" r="7" stroke="black" stroke-opacity="0.5"/>
<circle cx="82" cy="4" r="1.5" stroke="black" stroke-opacity="0.5"/>
<rect x="90.5" y="2.5" width="18" height="3" rx="1.5" stroke="black" stroke-opacity="0.35"/>
<g filter="url(#filter1_d)">
<rect x="69" y="54.9091" width="8" height="16.7273" fill="#2E2826" fill-opacity="0.15"/>
<rect x="70" y="55.9091" width="6" height="14.7273" stroke="#41414E" stroke-opacity="0.52" stroke-width="2"/>
<path d="M77 54.5455L90.0909 44V80L77 71.2727V54.5455Z" fill="#2E2826" fill-opacity="0.15"/>
<path d="M78 70.7375V55.024L89.0909 46.0897V78.1315L78 70.7375Z" stroke="#41414E" stroke-opacity="0.52" stroke-width="2"/>
<path d="M97.0909 62.9091C97.0909 66.4356 94.4832 69.353 91.0909 69.8382L91.0909 62.9091L91.0909 55.98C94.4832 56.4652 97.0909 59.3826 97.0909 62.9091Z" stroke="black" stroke-opacity="0.35" stroke-width="2"/>
</g>
<line x1="61.639" y1="84.654" x2="107.639" y2="36.654" stroke="black"/>
<line x1="54.3397" y1="38.6331" x2="108.34" y2="88.6331" stroke="black"/>
<defs>
<filter id="filter0_d" x="0" y="67" width="172.473" height="172.473" filterUnits="userSpaceOnUse" color-interpolation-filters="sRGB">
<feFlood flood-opacity="0" result="BackgroundImageFix"/>
<feColorMatrix in="SourceAlpha" type="matrix" values="0 0 0 0 0 0 0 0 0 0 0 0 0 0 0 0 0 0 127 0"/>
<feOffset dx="4" dy="4"/>
<feGaussianBlur stdDeviation="6"/>
<feColorMatrix type="matrix" values="0 0 0 0 0.470588 0 0 0 0 0.333333 0 0 0 0 0.701961 0 0 0 0.35 0"/>
<feBlend mode="normal" in2="BackgroundImageFix" result="effect1_dropShadow"/>
<feBlend mode="normal" in="SourceGraphic" in2="effect1_dropShadow" result="shape"/>
</filter>
<filter id="filter1_d" x="65" y="44" width="37.0909" height="44" filterUnits="userSpaceOnUse" color-interpolation-filters="sRGB">
<feFlood flood-opacity="0" result="BackgroundImageFix"/>
<feColorMatrix in="SourceAlpha" type="matrix" values="0 0 0 0 0 0 0 0 0 0 0 0 0 0 0 0 0 0 127 0"/>
<feOffset dy="4"/>
<feGaussianBlur stdDeviation="2"/>
<feColorMatrix type="matrix" values="0 0 0 0 0 0 0 0 0 0 0 0 0 0 0 0 0 0 0.25 0"/>
<feBlend mode="normal" in2="BackgroundImageFix" result="effect1_dropShadow"/>
<feBlend mode="normal" in="SourceGraphic" in2="effect1_dropShadow" result="shape"/>
</filter>
<linearGradient id="paint0_linear" x1="136.645" y1="75" x2="136.645" y2="180.021" gradientUnits="userSpaceOnUse">
<stop stop-color="white"/>
<stop offset="1" stop-color="white" stop-opacity="0"/>
</linearGradient>
</defs>
</svg>
