<svg width="173" height="240" viewBox="0 0 173 240" fill="none" xmlns="http://www.w3.org/2000/svg">
<g filter="url(#filter0_d)">
<rect x="84.1342" y="75" width="105.021" height="105.021" rx="20" transform="rotate(46.4641 84.1342 75)" fill="#704CAF" fill-opacity="0.2"/>
<rect x="84.1342" y="75" width="105.021" height="105.021" rx="20" transform="rotate(46.4641 84.1342 75)" fill="url(#paint0_linear)" fill-opacity="0.5"/>
<rect x="84.1161" y="75.7069" width="104.021" height="104.021" rx="19.5" transform="rotate(46.4641 84.1161 75.7069)" stroke="black" stroke-opacity="0.1"/>
</g>
<rect x="41" width="83" height="161" rx="10" fill="#FDFDFD"/>
<rect x="41.5" y="0.5" width="82" height="160" rx="9.5" stroke="black" stroke-opacity="0.5"/>
<rect x="41.5" y="0.5" width="82" height="160" rx="9.5" stroke="black" stroke-opacity="0.5"/>
<rect x="45.5" y="7.5" width="74" height="134" rx="9.5" stroke="black" stroke-opacity="0.5"/>
<circle cx="81.5" cy="150.5" r="7" stroke="black" stroke-opacity="0.5"/>
<circle cx="82" cy="4" r="1.5" stroke="black" stroke-opacity="0.5"/>
<rect x="90.5" y="2.5" width="18" height="3" rx="1.5" stroke="black" stroke-opacity="0.35"/>
<path fill-rule="evenodd" clip-rule="evenodd" d="M93.8029 99.2549C93.6438 99.1449 93.4598 99.0654 93.2576 99.0264C92.9761 98.972 92.698 99.0037 92.4503 99.103C92.2707 99.1199 92.0953 99.1947 91.9543 99.3283L88.2857 102.802C87.9504 103.12 87.936 103.649 88.2535 103.984C88.571 104.32 89.1002 104.334 89.4355 104.017L91.1399 102.402L88.8353 114.338L83.0642 108.61C83.0111 108.557 82.9548 108.51 82.8961 108.467C82.7322 108.146 82.4481 107.885 82.0799 107.759C81.3279 107.502 80.5096 107.903 80.2523 108.655L75.0779 123.78C74.8206 124.532 75.2217 125.351 75.9738 125.608C76.7259 125.865 77.5441 125.464 77.8014 124.712L82.2119 111.82L88.3877 117.95C88.9518 118.51 89.8631 118.506 90.4231 117.942C90.6049 117.759 90.7273 117.539 90.7904 117.307C91.0803 117.1 91.2944 116.786 91.3672 116.408L94.024 102.649L95.2747 104.822C95.5051 105.222 96.0162 105.359 96.4164 105.129C96.8166 104.899 96.9543 104.387 96.7239 103.987L94.2031 99.6085C94.1082 99.4436 93.9657 99.3233 93.8029 99.2549Z" fill="#F2E572"/>
<path d="M93.2576 99.0264L93.1629 99.5173L93.1629 99.5173L93.2576 99.0264ZM93.8029 99.2549L93.5185 99.6662L93.5613 99.6958L93.6093 99.7159L93.8029 99.2549ZM92.4503 99.103L92.4971 99.6008L92.5692 99.594L92.6364 99.5671L92.4503 99.103ZM91.9543 99.3283L92.2981 99.6914L92.2981 99.6914L91.9543 99.3283ZM88.2857 102.802L88.6295 103.165L88.6295 103.165L88.2857 102.802ZM88.2535 103.984L87.8904 104.328V104.328L88.2535 103.984ZM89.4355 104.017L89.7793 104.38L89.7793 104.38L89.4355 104.017ZM91.1399 102.402L91.6309 102.497L91.9258 100.97L90.7961 102.039L91.1399 102.402ZM88.8353 114.338L88.4831 114.693L89.1485 115.354L89.3262 114.433L88.8353 114.338ZM83.0642 108.61L82.712 108.965L82.712 108.965L83.0642 108.61ZM82.8961 108.467L82.4507 108.694L82.5051 108.801L82.6018 108.871L82.8961 108.467ZM82.0799 107.759L81.9181 108.232L82.0799 107.759ZM80.2523 108.655L80.7254 108.817L80.2523 108.655ZM75.0779 123.78L74.6048 123.618L74.6048 123.618L75.0779 123.78ZM75.9738 125.608L76.1356 125.135H76.1356L75.9738 125.608ZM77.8014 124.712L78.2745 124.874L77.8014 124.712ZM82.2119 111.82L82.5641 111.465L81.9973 110.902L81.7388 111.658L82.2119 111.82ZM88.3877 117.95L88.7399 117.595V117.595L88.3877 117.95ZM90.4231 117.942L90.0682 117.59L90.4231 117.942ZM90.7904 117.307L90.4999 116.9L90.3547 117.004L90.3079 117.176L90.7904 117.307ZM91.3672 116.408L91.8582 116.503V116.503L91.3672 116.408ZM94.024 102.649L94.4573 102.4L93.7876 101.236L93.5331 102.554L94.024 102.649ZM95.2747 104.822L94.8414 105.071V105.071L95.2747 104.822ZM96.4164 105.129L96.6659 105.562L96.6659 105.562L96.4164 105.129ZM96.7239 103.987L97.1572 103.738L97.1572 103.738L96.7239 103.987ZM94.2031 99.6085L94.6364 99.359V99.359L94.2031 99.6085ZM93.1629 99.5173C93.2957 99.5429 93.4153 99.5949 93.5185 99.6662L94.0872 98.8437C93.8722 98.695 93.6239 98.5878 93.3524 98.5354L93.1629 99.5173ZM92.6364 99.5671C92.7976 99.5024 92.9784 99.4817 93.1629 99.5173L93.3524 98.5354C92.9739 98.4623 92.5983 98.5049 92.2641 98.6389L92.6364 99.5671ZM92.2981 99.6914C92.3552 99.6373 92.4249 99.6076 92.4971 99.6008L92.4034 98.6052C92.1166 98.6322 91.8355 98.7522 91.6105 98.9653L92.2981 99.6914ZM88.6295 103.165L92.2981 99.6914L91.6105 98.9653L87.9419 102.439L88.6295 103.165ZM88.6165 103.641C88.4889 103.506 88.4947 103.293 88.6295 103.165L87.9419 102.439C87.4061 102.947 87.3831 103.792 87.8904 104.328L88.6165 103.641ZM89.0917 103.654C88.9569 103.781 88.7442 103.775 88.6165 103.641L87.8904 104.328C88.3978 104.864 89.2435 104.887 89.7793 104.38L89.0917 103.654ZM90.7961 102.039L89.0917 103.654L89.7793 104.38L91.4837 102.766L90.7961 102.039ZM89.3262 114.433L91.6309 102.497L90.649 102.308L88.3444 114.244L89.3262 114.433ZM82.712 108.965L88.4831 114.693L89.1875 113.983L83.4165 108.255L82.712 108.965ZM82.6018 108.871C82.6401 108.899 82.6769 108.93 82.712 108.965L83.4165 108.255C83.3452 108.184 83.2696 108.12 83.1904 108.063L82.6018 108.871ZM81.9181 108.232C82.1586 108.314 82.3434 108.484 82.4507 108.694L83.3415 108.24C83.121 107.807 82.7377 107.456 82.2418 107.286L81.9181 108.232ZM80.7254 108.817C80.8933 108.326 81.4273 108.064 81.9181 108.232L82.2418 107.286C81.2284 106.939 80.1259 107.48 79.7792 108.493L80.7254 108.817ZM75.551 123.942L80.7254 108.817L79.7792 108.493L74.6048 123.618L75.551 123.942ZM76.1356 125.135C75.6448 124.967 75.3831 124.433 75.551 123.942L74.6048 123.618C74.2581 124.632 74.7986 125.734 75.8119 126.081L76.1356 125.135ZM77.3283 124.55C77.1604 125.041 76.6264 125.303 76.1356 125.135L75.8119 126.081C76.8253 126.428 77.9278 125.887 78.2745 124.874L77.3283 124.55ZM81.7388 111.658L77.3283 124.55L78.2745 124.874L82.685 111.982L81.7388 111.658ZM88.7399 117.595L82.5641 111.465L81.8597 112.175L88.0354 118.305L88.7399 117.595ZM90.0682 117.59C89.7028 117.958 89.1081 117.96 88.7399 117.595L88.0354 118.305C88.7956 119.059 90.0234 119.055 90.7779 118.294L90.0682 117.59ZM90.3079 117.176C90.2668 117.327 90.1874 117.47 90.0682 117.59L90.7779 118.294C91.0223 118.048 91.1877 117.752 91.2729 117.438L90.3079 117.176ZM90.8763 116.314C90.8287 116.56 90.6896 116.765 90.4999 116.9L91.0809 117.714C91.471 117.435 91.7601 117.011 91.8582 116.503L90.8763 116.314ZM93.5331 102.554L90.8763 116.314L91.8582 116.503L94.5149 102.744L93.5331 102.554ZM95.708 104.572L94.4573 102.4L93.5907 102.898L94.8414 105.071L95.708 104.572ZM96.167 104.696C96.0061 104.788 95.8006 104.733 95.708 104.572L94.8414 105.071C95.2095 105.71 96.0264 105.93 96.6659 105.562L96.167 104.696ZM96.2906 104.237C96.3832 104.398 96.3278 104.603 96.167 104.696L96.6659 105.562C97.3054 105.194 97.5254 104.377 97.1572 103.738L96.2906 104.237ZM93.7698 99.8579L96.2906 104.237L97.1572 103.738L94.6364 99.359L93.7698 99.8579ZM93.6093 99.7159C93.6747 99.7434 93.7314 99.7912 93.7698 99.8579L94.6364 99.359C94.4851 99.0961 94.2567 98.9032 93.9965 98.7939L93.6093 99.7159Z" fill="black" fill-opacity="0.2"/>
<path d="M69 85C79.2273 78.756 83.7273 77.9236 96 85" stroke="#68E4FF" stroke-width="2"/>
<path d="M75 88C80.6818 85.5024 83.1818 85.1694 90 88" stroke="#68E4FF" stroke-width="2"/>
<path d="M66 79C78.5 72.756 84 71.9236 99 79" stroke="#68E4FF" stroke-width="2"/>
<line x1="69.1701" y1="128.958" x2="103.337" y2="98.9577" stroke="black"/>
<line x1="62.3142" y1="95.611" x2="105.648" y2="130.611" stroke="black"/>
<defs>
<filter id="filter0_d" x="-2.86102e-06" y="67" width="172.473" height="172.473" filterUnits="userSpaceOnUse" color-interpolation-filters="sRGB">
<feFlood flood-opacity="0" result="BackgroundImageFix"/>
<feColorMatrix in="SourceAlpha" type="matrix" values="0 0 0 0 0 0 0 0 0 0 0 0 0 0 0 0 0 0 127 0"/>
<feOffset dx="4" dy="4"/>
<feGaussianBlur stdDeviation="6"/>
<feColorMatrix type="matrix" values="0 0 0 0 0.470588 0 0 0 0 0.333333 0 0 0 0 0.701961 0 0 0 0.35 0"/>
<feBlend mode="normal" in2="BackgroundImageFix" result="effect1_dropShadow"/>
<feBlend mode="normal" in="SourceGraphic" in2="effect1_dropShadow" result="shape"/>
</filter>
<linearGradient id="paint0_linear" x1="136.645" y1="75" x2="136.645" y2="180.021" gradientUnits="userSpaceOnUse">
<stop stop-color="white"/>
<stop offset="1" stop-color="white" stop-opacity="0"/>
</linearGradient>
</defs>
</svg>
