<svg width="173" height="240" viewBox="0 0 173 240" fill="none" xmlns="http://www.w3.org/2000/svg">
<g filter="url(#filter0_d)">
<rect x="84.1342" y="75" width="105.021" height="105.021" rx="20" transform="rotate(46.4641 84.1342 75)" fill="#704CAF" fill-opacity="0.2"/>
<rect x="84.1342" y="75" width="105.021" height="105.021" rx="20" transform="rotate(46.4641 84.1342 75)" fill="url(#paint0_linear)" fill-opacity="0.5"/>
<rect x="84.1161" y="75.7069" width="104.021" height="104.021" rx="19.5" transform="rotate(46.4641 84.1161 75.7069)" stroke="black" stroke-opacity="0.1"/>
</g>
<rect x="41" width="83" height="161" rx="10" fill="#FDFDFD"/>
<rect x="41.5" y="0.5" width="82" height="160" rx="9.5" stroke="black" stroke-opacity="0.5"/>
<rect x="41.5" y="0.5" width="82" height="160" rx="9.5" stroke="black" stroke-opacity="0.5"/>
<rect x="45.5" y="7.5" width="74" height="134" rx="9.5" stroke="black" stroke-opacity="0.5"/>
<circle cx="81.5" cy="150.5" r="7" stroke="black" stroke-opacity="0.5"/>
<circle cx="82" cy="4" r="1.5" stroke="black" stroke-opacity="0.5"/>
<rect x="90.5" y="2.5" width="18" height="3" rx="1.5" stroke="black" stroke-opacity="0.35"/>
<rect x="63" y="119" width="40" height="5" rx="1" fill="#C4C4C4"/>
<path fill-rule="evenodd" clip-rule="evenodd" d="M106.334 54.1402C106.246 54.0797 106.145 54.036 106.034 54.0145C105.879 53.9846 105.726 54.002 105.59 54.0567C105.491 54.066 105.395 54.1071 105.317 54.1805L103.301 56.0897C103.117 56.2642 103.109 56.555 103.284 56.7393C103.458 56.9235 103.749 56.9315 103.933 56.757L104.87 55.8699L103.603 62.4294L100.432 59.2814C100.403 59.2524 100.372 59.2261 100.339 59.2027C100.249 59.0261 100.093 58.8829 99.8909 58.8137C99.4776 58.6723 99.0279 58.8927 98.8865 59.3061L96.0428 67.6184C95.9014 68.0317 96.1218 68.4814 96.5352 68.6228C96.9485 68.7642 97.3982 68.5437 97.5395 68.1304L99.9634 61.0453L103.357 64.4141C103.667 64.7219 104.168 64.72 104.476 64.41C104.576 64.3093 104.643 64.1885 104.678 64.0608C104.837 63.9471 104.955 63.7744 104.995 63.567L106.455 56.0054L107.142 57.1993C107.269 57.4193 107.55 57.4949 107.77 57.3683C107.99 57.2417 108.065 56.9608 107.939 56.7408L106.553 54.3344C106.501 54.2439 106.423 54.1778 106.334 54.1402Z" fill="#F2E572"/>
<path d="M106.034 54.0145L105.939 54.5054V54.5054L106.034 54.0145ZM106.334 54.1402L106.049 54.5514L106.092 54.581L106.14 54.6011L106.334 54.1402ZM105.59 54.0567L105.637 54.5545L105.709 54.5477L105.776 54.5207L105.59 54.0567ZM105.317 54.1805L104.974 53.8174L104.974 53.8174L105.317 54.1805ZM103.301 56.0897L103.645 56.4528L103.301 56.0897ZM103.284 56.7393L102.921 57.0831L102.921 57.0831L103.284 56.7393ZM103.933 56.757L103.589 56.3939L103.933 56.757ZM104.87 55.8699L105.361 55.9647L105.656 54.4371L104.526 55.5069L104.87 55.8699ZM103.603 62.4294L103.251 62.7843L103.917 63.4448L104.094 62.5242L103.603 62.4294ZM100.432 59.2814L100.784 58.9265L100.784 58.9265L100.432 59.2814ZM100.339 59.2027L99.894 59.4298L99.9484 59.5364L100.045 59.6069L100.339 59.2027ZM99.8909 58.8137L99.729 59.2868H99.729L99.8909 58.8137ZM98.8865 59.3061L98.4134 59.1442V59.1442L98.8865 59.3061ZM96.0428 67.6184L96.5159 67.7802H96.5159L96.0428 67.6184ZM96.5352 68.6228L96.3733 69.0959L96.5352 68.6228ZM97.5395 68.1304L98.0126 68.2923L97.5395 68.1304ZM99.9634 61.0453L100.316 60.6905L99.7488 60.1278L99.4903 60.8835L99.9634 61.0453ZM103.357 64.4141L103.71 64.0593H103.71L103.357 64.4141ZM104.476 64.41L104.831 64.7622L104.476 64.41ZM104.678 64.0608L104.387 63.6538L104.242 63.7575L104.195 63.9298L104.678 64.0608ZM104.995 63.567L105.486 63.6618V63.6618L104.995 63.567ZM106.455 56.0054L106.888 55.7559L106.218 54.5925L105.964 55.9106L106.455 56.0054ZM107.142 57.1993L107.576 56.9499V56.9499L107.142 57.1993ZM107.77 57.3683L108.019 57.8016L108.019 57.8016L107.77 57.3683ZM107.939 56.7408L108.372 56.4914V56.4914L107.939 56.7408ZM106.553 54.3344L106.987 54.085L106.987 54.085L106.553 54.3344ZM105.939 54.5054C105.981 54.5135 106.018 54.5296 106.049 54.5514L106.618 53.729C106.475 53.6298 106.309 53.5584 106.129 53.5236L105.939 54.5054ZM105.776 54.5207C105.826 54.5008 105.881 54.4943 105.939 54.5054L106.129 53.5236C105.877 53.4749 105.626 53.5033 105.404 53.5926L105.776 54.5207ZM105.661 54.5435C105.658 54.5462 105.655 54.5489 105.65 54.551C105.645 54.553 105.641 54.5541 105.637 54.5545L105.543 53.5589C105.337 53.5783 105.135 53.6646 104.974 53.8174L105.661 54.5435ZM103.645 56.4528L105.661 54.5435L104.974 53.8174L102.958 55.7267L103.645 56.4528ZM103.647 56.3955C103.662 56.4117 103.661 56.4374 103.645 56.4528L102.958 55.7267C102.573 56.091 102.556 56.6983 102.921 57.0831L103.647 56.3955ZM103.589 56.3939C103.606 56.3785 103.631 56.3792 103.647 56.3955L102.921 57.0831C103.285 57.4678 103.892 57.4844 104.277 57.12L103.589 56.3939ZM104.526 55.5069L103.589 56.3939L104.277 57.12L105.214 56.233L104.526 55.5069ZM104.094 62.5242L105.361 55.9647L104.379 55.7751L103.112 62.3346L104.094 62.5242ZM100.08 59.6362L103.251 62.7843L103.956 62.0745L100.784 58.9265L100.08 59.6362ZM100.045 59.6069C100.057 59.6155 100.068 59.6252 100.08 59.6362L100.784 58.9265C100.737 58.8796 100.686 58.8368 100.634 58.7984L100.045 59.6069ZM99.729 59.2868C99.8037 59.3123 99.8606 59.3643 99.894 59.4298L100.785 58.9755C100.638 58.6879 100.383 58.4536 100.053 58.3406L99.729 59.2868ZM99.3596 59.4679C99.4116 59.3159 99.577 59.2348 99.729 59.2868L100.053 58.3406C99.3781 58.1098 98.6442 58.4696 98.4134 59.1442L99.3596 59.4679ZM96.5159 67.7802L99.3596 59.4679L98.4134 59.1442L95.5697 67.4565L96.5159 67.7802ZM96.697 68.1497C96.545 68.0977 96.4639 67.9323 96.5159 67.7802L95.5697 67.4565C95.3389 68.1311 95.6987 68.8651 96.3733 69.0959L96.697 68.1497ZM97.0665 67.9686C97.0145 68.1206 96.849 68.2017 96.697 68.1497L96.3733 69.0959C97.0479 69.3266 97.7818 68.9669 98.0126 68.2923L97.0665 67.9686ZM99.4903 60.8835L97.0665 67.9686L98.0126 68.2923L100.436 61.2072L99.4903 60.8835ZM103.71 64.0593L100.316 60.6905L99.6112 61.4002L103.005 64.769L103.71 64.0593ZM104.121 64.0577C104.008 64.1718 103.824 64.1725 103.71 64.0593L103.005 64.769C103.511 65.2713 104.329 65.2682 104.831 64.7622L104.121 64.0577ZM104.195 63.9298C104.183 63.9762 104.158 64.0201 104.121 64.0577L104.831 64.7622C104.993 64.5985 105.104 64.4009 105.16 64.1918L104.195 63.9298ZM104.504 63.4722C104.489 63.5487 104.446 63.6116 104.387 63.6538L104.968 64.4678C105.228 64.2825 105.42 64 105.486 63.6618L104.504 63.4722ZM105.964 55.9106L104.504 63.4722L105.486 63.6618L106.946 56.1002L105.964 55.9106ZM107.576 56.9499L106.888 55.7559L106.022 56.2548L106.709 57.4488L107.576 56.9499ZM107.52 56.935C107.54 56.9238 107.564 56.9305 107.576 56.9499L106.709 57.4488C106.973 57.908 107.56 58.066 108.019 57.8016L107.52 56.935ZM107.505 56.9903C107.494 56.9709 107.501 56.9461 107.52 56.935L108.019 57.8016C108.478 57.5372 108.636 56.9506 108.372 56.4914L107.505 56.9903ZM106.12 54.5839L107.505 56.9903L108.372 56.4914L106.987 54.085L106.12 54.5839ZM106.14 54.6011C106.136 54.5996 106.132 54.5973 106.129 54.5941C106.125 54.5908 106.122 54.5871 106.12 54.5839L106.987 54.085C106.878 53.8964 106.714 53.7578 106.527 53.6793L106.14 54.6011Z" fill="black" fill-opacity="0.2"/>
<path opacity="0.35" d="M64.35 58.765C64.93 58.535 65.51 58.24 66.09 57.88C66.68 57.52 67.2 57.095 67.65 56.605H68.925V67H67.11V59.035C66.84 59.245 66.5 59.45 66.09 59.65C65.68 59.85 65.285 60.015 64.905 60.145L64.35 58.765ZM75.0654 67.225C74.7954 67.225 74.5154 67.205 74.2254 67.165C73.9454 67.135 73.6754 67.09 73.4154 67.03C73.1654 66.98 72.9354 66.925 72.7254 66.865C72.5154 66.795 72.3554 66.73 72.2454 66.67L72.6054 65.125C72.8154 65.225 73.1204 65.34 73.5204 65.47C73.9204 65.59 74.4154 65.65 75.0054 65.65C75.7954 65.65 76.3654 65.5 76.7154 65.2C77.0654 64.89 77.2404 64.48 77.2404 63.97C77.2404 63.64 77.1704 63.365 77.0304 63.145C76.9004 62.925 76.7154 62.75 76.4754 62.62C76.2454 62.48 75.9754 62.385 75.6654 62.335C75.3654 62.275 75.0454 62.245 74.7054 62.245H74.0904V60.775H74.8404C75.0704 60.775 75.3004 60.755 75.5304 60.715C75.7704 60.665 75.9854 60.585 76.1754 60.475C76.3654 60.355 76.5204 60.2 76.6404 60.01C76.7604 59.82 76.8204 59.575 76.8204 59.275C76.8204 59.035 76.7754 58.83 76.6854 58.66C76.5954 58.49 76.4754 58.35 76.3254 58.24C76.1854 58.13 76.0204 58.05 75.8304 58C75.6404 57.95 75.4404 57.925 75.2304 57.925C74.7804 57.925 74.3804 57.995 74.0304 58.135C73.6804 58.265 73.3704 58.415 73.1004 58.585L72.4404 57.235C72.5804 57.145 72.7504 57.05 72.9504 56.95C73.1504 56.85 73.3704 56.755 73.6104 56.665C73.8604 56.575 74.1254 56.505 74.4054 56.455C74.6854 56.395 74.9804 56.365 75.2904 56.365C75.8704 56.365 76.3704 56.435 76.7904 56.575C77.2104 56.715 77.5554 56.915 77.8254 57.175C78.1054 57.425 78.3104 57.725 78.4404 58.075C78.5804 58.415 78.6504 58.79 78.6504 59.2C78.6504 59.68 78.5154 60.11 78.2454 60.49C77.9854 60.87 77.6454 61.16 77.2254 61.36C77.7654 61.55 78.2104 61.865 78.5604 62.305C78.9204 62.745 79.1004 63.31 79.1004 64C79.1004 64.46 79.0204 64.89 78.8604 65.29C78.7004 65.68 78.4554 66.02 78.1254 66.31C77.7954 66.59 77.3754 66.815 76.8654 66.985C76.3654 67.145 75.7654 67.225 75.0654 67.225ZM85.7958 59.215C85.7958 60.125 85.5608 60.825 85.0908 61.315C84.6308 61.805 84.0258 62.05 83.2758 62.05C82.9058 62.05 82.5658 61.99 82.2558 61.87C81.9458 61.74 81.6808 61.555 81.4608 61.315C81.2408 61.075 81.0658 60.78 80.9358 60.43C80.8158 60.07 80.7558 59.665 80.7558 59.215C80.7558 58.295 80.9858 57.595 81.4458 57.115C81.9158 56.625 82.5258 56.38 83.2758 56.38C84.0258 56.38 84.6308 56.625 85.0908 57.115C85.5608 57.595 85.7958 58.295 85.7958 59.215ZM84.3708 59.215C84.3708 58.685 84.2708 58.29 84.0708 58.03C83.8808 57.76 83.6158 57.625 83.2758 57.625C82.9358 57.625 82.6708 57.76 82.4808 58.03C82.2908 58.29 82.1958 58.685 82.1958 59.215C82.1958 59.745 82.2908 60.145 82.4808 60.415C82.6708 60.675 82.9358 60.805 83.2758 60.805C83.6158 60.805 83.8808 60.675 84.0708 60.415C84.2708 60.145 84.3708 59.745 84.3708 59.215ZM88.8408 56.605H90.5658L84.7008 67H82.9758L88.8408 56.605ZM92.8008 64.405C92.8008 65.315 92.5658 66.015 92.0958 66.505C91.6358 66.995 91.0308 67.24 90.2808 67.24C89.9108 67.24 89.5708 67.175 89.2608 67.045C88.9508 66.925 88.6858 66.745 88.4658 66.505C88.2458 66.265 88.0708 65.97 87.9408 65.62C87.8208 65.26 87.7608 64.855 87.7608 64.405C87.7608 63.485 87.9908 62.785 88.4508 62.305C88.9208 61.815 89.5308 61.57 90.2808 61.57C91.0308 61.57 91.6358 61.815 92.0958 62.305C92.5658 62.785 92.8008 63.485 92.8008 64.405ZM91.3758 64.405C91.3758 63.875 91.2758 63.48 91.0758 63.22C90.8858 62.95 90.6208 62.815 90.2808 62.815C89.9408 62.815 89.6758 62.95 89.4858 63.22C89.2958 63.48 89.2008 63.875 89.2008 64.405C89.2008 64.935 89.2958 65.335 89.4858 65.605C89.6758 65.865 89.9408 65.995 90.2808 65.995C90.6208 65.995 90.8858 65.865 91.0758 65.605C91.2758 65.335 91.3758 64.935 91.3758 64.405Z" fill="black"/>
<rect x="63" y="99" width="40" height="12" rx="1" fill="#C4C4C4" fill-opacity="0.15"/>
<rect x="63.5" y="99.5" width="39" height="11" rx="0.5" stroke="black" stroke-opacity="0.2"/>
<rect x="63" y="112" width="40" height="12" rx="1" fill="#C4C4C4" fill-opacity="0.15"/>
<rect x="63.5" y="112.5" width="39" height="11" rx="0.5" stroke="black" stroke-opacity="0.2"/>
<rect x="63" y="86" width="40" height="12" rx="1" fill="#C4C4C4" fill-opacity="0.15"/>
<rect x="63.5" y="86.5" width="39" height="11" rx="0.5" stroke="black" stroke-opacity="0.2"/>
<rect x="63" y="73" width="40" height="12" rx="1" fill="#C4C4C4" fill-opacity="0.15"/>
<rect x="63.5" y="73.5" width="39" height="11" rx="0.5" stroke="black" stroke-opacity="0.2"/>
<defs>
<filter id="filter0_d" x="0" y="67" width="172.473" height="172.473" filterUnits="userSpaceOnUse" color-interpolation-filters="sRGB">
<feFlood flood-opacity="0" result="BackgroundImageFix"/>
<feColorMatrix in="SourceAlpha" type="matrix" values="0 0 0 0 0 0 0 0 0 0 0 0 0 0 0 0 0 0 127 0"/>
<feOffset dx="4" dy="4"/>
<feGaussianBlur stdDeviation="6"/>
<feColorMatrix type="matrix" values="0 0 0 0 0.470588 0 0 0 0 0.333333 0 0 0 0 0.701961 0 0 0 0.35 0"/>
<feBlend mode="normal" in2="BackgroundImageFix" result="effect1_dropShadow"/>
<feBlend mode="normal" in="SourceGraphic" in2="effect1_dropShadow" result="shape"/>
</filter>
<linearGradient id="paint0_linear" x1="136.645" y1="75" x2="136.645" y2="180.021" gradientUnits="userSpaceOnUse">
<stop stop-color="white"/>
<stop offset="1" stop-color="white" stop-opacity="0"/>
</linearGradient>
</defs>
</svg>
