<svg width="86" height="140" viewBox="0 0 86 140" fill="none" xmlns="http://www.w3.org/2000/svg">
<g filter="url(#filter0_d)">
<path opacity="0.55" d="M8.24659 18.309C8.13036 11.0931 15.4629 6.13374 22.1169 8.92785L44.1583 18.1832C47.7664 19.6983 50.1592 23.1788 50.2817 27.0902L52.598 101.018C52.7186 104.869 50.6158 108.447 47.1923 110.216L24.3646 122.008C17.7713 125.413 9.89594 120.704 9.77642 113.284L8.24659 18.309Z" fill="#FFF8F8"/>
<path d="M15.1331 19.4378C15.0167 12.2238 22.3455 7.2644 28.9991 10.0546L47.0054 17.6057C50.6157 19.1197 53.0105 22.6011 53.1333 26.514L55.1884 92.022C55.3093 95.8755 53.2042 99.4552 49.778 101.223L31.0506 110.884C24.4577 114.285 16.5869 109.575 16.4673 102.158L15.1331 19.4378Z" fill="#282424"/>
<path opacity="0.35" d="M12.6786 19.4378C12.5622 12.2238 19.8909 7.2644 26.5445 10.0546L44.5509 17.6057C48.1612 19.1197 50.556 22.6011 50.6787 26.514L52.7339 92.022C52.8548 95.8755 50.7497 99.4552 47.3234 101.223L28.5961 110.884C22.0032 114.285 14.1324 109.575 14.0128 102.158L12.6786 19.4378Z" fill="#282424"/>
<path d="M19.2491 26.22C19.1314 19.0271 26.4193 14.0667 33.0677 16.8148L46.8487 22.5111C50.4823 24.013 52.8986 27.5048 53.0237 31.4346L54.7978 87.1752C54.9212 91.0514 52.7923 94.6494 49.3354 96.4072L34.9056 103.744C28.3166 107.095 20.4954 102.385 20.3745 94.9942L19.2491 26.22Z" fill="#70D5EB"/>
<path d="M19.2491 26.22C19.1314 19.0271 26.4193 14.0667 33.0677 16.8148L46.8487 22.5111C50.4823 24.013 52.8986 27.5048 53.0237 31.4346L54.7978 87.1752C54.9212 91.0514 52.7923 94.6494 49.3354 96.4072L34.9056 103.744C28.3166 107.095 20.4954 102.385 20.3745 94.9942L19.2491 26.22Z" fill="url(#paint0_linear)"/>
<mask id="path-5-inside-1" fill="white">
<path fill-rule="evenodd" clip-rule="evenodd" d="M11.9157 100.551C8.49833 97.8858 7.88847 92.9549 10.5536 89.5375L33.2861 60.3882C33.7866 59.7464 34.6261 59.4719 35.4091 59.6941L38.4277 60.5505L57.2601 36.4022L61.4813 27.9871L69.853 34.5159L62.7198 40.6602L43.8747 64.8248L45.7413 67.7896C46.1903 68.5026 46.1442 69.4206 45.626 70.0851L22.9291 99.1887C20.264 102.606 15.3332 103.216 11.9157 100.551Z"/>
</mask>
<path fill-rule="evenodd" clip-rule="evenodd" d="M11.9157 100.551C8.49833 97.8858 7.88847 92.9549 10.5536 89.5375L33.2861 60.3882C33.7866 59.7464 34.6261 59.4719 35.4091 59.6941L38.4277 60.5505L57.2601 36.4022L61.4813 27.9871L69.853 34.5159L62.7198 40.6602L43.8747 64.8248L45.7413 67.7896C46.1903 68.5026 46.1442 69.4206 45.626 70.0851L22.9291 99.1887C20.264 102.606 15.3332 103.216 11.9157 100.551Z" fill="#C9B8B8"/>
<path d="M10.5536 89.5375L8.97647 88.3076L10.5536 89.5375ZM33.2861 60.3882L34.8632 61.6181L33.2861 60.3882ZM35.4091 59.6941L35.955 57.77L35.955 57.77L35.4091 59.6941ZM38.4277 60.5505L37.8818 62.4746L39.1769 62.842L40.0048 61.7804L38.4277 60.5505ZM57.2601 36.4022L58.8372 37.6321L58.959 37.476L59.0478 37.299L57.2601 36.4022ZM61.4813 27.9871L62.7112 26.41L60.7874 24.9097L59.6936 27.0904L61.4813 27.9871ZM69.853 34.5159L71.1582 36.0312L73.0067 34.439L71.0829 32.9388L69.853 34.5159ZM62.7198 40.6602L61.4146 39.1448L61.2645 39.2741L61.1427 39.4303L62.7198 40.6602ZM43.8747 64.8248L42.2976 63.5949L41.434 64.7022L42.1822 65.8905L43.8747 64.8248ZM45.7413 67.7896L47.4338 66.7239L47.4338 66.7239L45.7413 67.7896ZM45.626 70.0851L44.0489 68.8552L45.626 70.0851ZM22.9291 99.1887L24.5062 100.419L22.9291 99.1887ZM8.97647 88.3076C5.63209 92.596 6.39738 98.7836 10.6858 102.128L13.1457 98.9738C10.5993 96.9879 10.1448 93.3138 12.1307 90.7674L8.97647 88.3076ZM31.7089 59.1583L8.97647 88.3076L12.1307 90.7674L34.8632 61.6181L31.7089 59.1583ZM35.955 57.77C34.389 57.3257 32.71 57.8747 31.7089 59.1583L34.8632 61.6181L34.8632 61.6181L35.955 57.77ZM38.9736 58.6265L35.955 57.77L34.8632 61.6181L37.8818 62.4746L38.9736 58.6265ZM55.6829 35.1723L36.8506 59.3206L40.0048 61.7804L58.8372 37.6321L55.6829 35.1723ZM59.0478 37.299L63.269 28.8839L59.6936 27.0904L55.4724 35.5055L59.0478 37.299ZM60.2513 29.5642L68.623 36.093L71.0829 32.9388L62.7112 26.41L60.2513 29.5642ZM68.5477 33.0005L61.4146 39.1448L64.0251 42.1755L71.1582 36.0312L68.5477 33.0005ZM45.4518 66.0548L64.2969 41.8901L61.1427 39.4303L42.2976 63.5949L45.4518 66.0548ZM47.4338 66.7239L45.5672 63.7592L42.1822 65.8905L44.0489 68.8552L47.4338 66.7239ZM47.2031 71.315C48.2395 69.9861 48.3317 68.1501 47.4338 66.7239L44.0489 68.8552L47.2031 71.315ZM24.5062 100.419L47.2031 71.315L44.0489 68.8552L21.352 97.9588L24.5062 100.419ZM10.6858 102.128C14.9742 105.472 21.1619 104.707 24.5062 100.419L21.352 97.9588C19.3662 100.505 15.6921 100.96 13.1457 98.9738L10.6858 102.128Z" fill="#EFEFF5" fill-opacity="0.4" mask="url(#path-5-inside-1)"/>
<rect opacity="0.6" x="8.69019" y="90.4257" width="36.4654" height="3.23111" rx="1.61556" transform="rotate(-52.0507 8.69019 90.4257)" fill="#FBF7F7"/>
<rect opacity="0.6" x="14.514" y="94.9675" width="36.4654" height="3.23111" rx="1.61556" transform="rotate(-52.0507 14.514 94.9675)" fill="#FBF7F7"/>
<rect opacity="0.6" x="20.3378" y="99.5092" width="36.4654" height="3.23111" rx="1.61556" transform="rotate(-52.0507 20.3378 99.5092)" fill="#FBF7F7"/>
</g>
<defs>
<filter id="filter0_d" x="0.245239" y="0.136963" width="85.6077" height="138.999" filterUnits="userSpaceOnUse" color-interpolation-filters="sRGB">
<feFlood flood-opacity="0" result="BackgroundImageFix"/>
<feColorMatrix in="SourceAlpha" type="matrix" values="0 0 0 0 0 0 0 0 0 0 0 0 0 0 0 0 0 0 127 0"/>
<feOffset dx="4" dy="4"/>
<feGaussianBlur stdDeviation="6"/>
<feColorMatrix type="matrix" values="0 0 0 0 0.933333 0 0 0 0 0.921667 0 0 0 0 0.921667 0 0 0 0.35 0"/>
<feBlend mode="normal" in2="BackgroundImageFix" result="effect1_dropShadow"/>
<feBlend mode="normal" in="SourceGraphic" in2="effect1_dropShadow" result="shape"/>
</filter>
<linearGradient id="paint0_linear" x1="100" y1="8.50007e-07" x2="-7" y2="89.5" gradientUnits="userSpaceOnUse">
<stop offset="0.546875" stop-color="#7C31DC" stop-opacity="0"/>
<stop offset="0.994792" stop-color="#4EF4FF"/>
</linearGradient>
</defs>
</svg>
