<svg width="32" height="31" viewBox="0 0 32 31" fill="none" xmlns="http://www.w3.org/2000/svg">
<ellipse cx="15.7762" cy="15.0828" rx="15.3528" ry="15.0032" fill="#EAEAEA" fill-opacity="0.5"/>
<path d="M30.629 15.0828C30.629 23.0819 23.9901 29.586 15.7762 29.586C7.56228 29.586 0.92337 23.0819 0.92337 15.0828C0.92337 7.08369 7.56228 0.57959 15.7762 0.57959C23.9901 0.57959 30.629 7.08369 30.629 15.0828Z" stroke="black" stroke-opacity="0.1"/>
<g opacity="0.8">
<mask id="path-3-inside-1" fill="white">
<path fill-rule="evenodd" clip-rule="evenodd" d="M17.5673 13.9156V8.08105H14.5821L14.5821 13.9156H8.61154V16.8329H14.5821L14.5821 22.084H17.5673V16.8329H22.9408V13.9156H17.5673Z"/>
</mask>
<g filter="url(#filter0_i)">
<path fill-rule="evenodd" clip-rule="evenodd" d="M17.5673 13.9156V8.08105H14.5821L14.5821 13.9156H8.61154V16.8329H14.5821L14.5821 22.084H17.5673V16.8329H22.9408V13.9156H17.5673Z" fill="#C4C4C4" fill-opacity="0.5"/>
</g>
<path d="M17.5673 8.08105H18.5673V7.08105H17.5673V8.08105ZM17.5673 13.9156H16.5673V14.9156H17.5673V13.9156ZM14.5821 8.08105V7.08105H13.5821L13.5821 8.08105L14.5821 8.08105ZM14.5821 13.9156V14.9156H15.5821L15.5821 13.9156L14.5821 13.9156ZM8.61154 13.9156V12.9156H7.61154V13.9156H8.61154ZM8.61154 16.8329H7.61154V17.8329H8.61154V16.8329ZM14.5821 16.8329L15.5821 16.8329L15.5821 15.8329H14.5821V16.8329ZM14.5821 22.084L13.5821 22.084L13.5821 23.084H14.5821V22.084ZM17.5673 22.084V23.084H18.5673V22.084H17.5673ZM17.5673 16.8329V15.8329H16.5673V16.8329H17.5673ZM22.9408 16.8329V17.8329H23.9408V16.8329H22.9408ZM22.9408 13.9156H23.9408V12.9156H22.9408V13.9156ZM16.5673 8.08105V13.9156H18.5673V8.08105H16.5673ZM14.5821 9.08105H17.5673V7.08105H14.5821V9.08105ZM15.5821 13.9156L15.5821 8.08105L13.5821 8.08105L13.5821 13.9156L15.5821 13.9156ZM8.61154 14.9156H14.5821V12.9156H8.61154V14.9156ZM9.61154 16.8329V13.9156H7.61154V16.8329H9.61154ZM14.5821 15.8329H8.61154V17.8329H14.5821V15.8329ZM15.5821 22.084L15.5821 16.8329L13.5821 16.8329L13.5821 22.084L15.5821 22.084ZM17.5673 21.084H14.5821V23.084H17.5673V21.084ZM16.5673 16.8329V22.084H18.5673V16.8329H16.5673ZM22.9408 15.8329H17.5673V17.8329H22.9408V15.8329ZM21.9408 13.9156V16.8329H23.9408V13.9156H21.9408ZM17.5673 14.9156H22.9408V12.9156H17.5673V14.9156Z" fill="black" fill-opacity="0.1" mask="url(#path-3-inside-1)"/>
</g>
<defs>
<filter id="filter0_i" x="8.61154" y="8.08105" width="14.3293" height="18.003" filterUnits="userSpaceOnUse" color-interpolation-filters="sRGB">
<feFlood flood-opacity="0" result="BackgroundImageFix"/>
<feBlend mode="normal" in="SourceGraphic" in2="BackgroundImageFix" result="shape"/>
<feColorMatrix in="SourceAlpha" type="matrix" values="0 0 0 0 0 0 0 0 0 0 0 0 0 0 0 0 0 0 127 0" result="hardAlpha"/>
<feOffset dy="4"/>
<feGaussianBlur stdDeviation="2"/>
<feComposite in2="hardAlpha" operator="arithmetic" k2="-1" k3="1"/>
<feColorMatrix type="matrix" values="0 0 0 0 0 0 0 0 0 0 0 0 0 0 0 0 0 0 0.18 0"/>
<feBlend mode="normal" in2="shape" result="effect1_innerShadow"/>
</filter>
</defs>
</svg>
