<svg width="1386" height="730" viewBox="0 0 1386 730" fill="none" xmlns="http://www.w3.org/2000/svg">
<path d="M784.453 -580.491C871.657 -644.797 994.21 -627.967 1060.85 -542.534L1343.16 -180.616C1412.57 -91.6273 1394.65 37.1365 1303.58 103.789L501.369 690.876C418.322 751.653 302.71 739.488 234.132 662.757L-70.5735 321.828C-149.119 233.945 -135.016 97.5386 -40.1515 27.5839L784.453 -580.491Z" fill="#643DA8"/>
<path d="M784.453 -580.491C871.657 -644.797 994.21 -627.967 1060.85 -542.534L1343.16 -180.616C1412.57 -91.6273 1394.65 37.1365 1303.58 103.789L501.369 690.876C418.322 751.653 302.71 739.488 234.132 662.757L-70.5735 321.828C-149.119 233.945 -135.016 97.5386 -40.1515 27.5839L784.453 -580.491Z" fill="url(#paint0_linear)" fill-opacity="0.6"/>
<defs>
<linearGradient id="paint0_linear" x1="1207.51" y1="-367.003" x2="45.4945" y2="506.991" gradientUnits="userSpaceOnUse">
<stop stop-color="white"/>
<stop offset="1" stop-color="white" stop-opacity="0"/>
</linearGradient>
</defs>
</svg>
