<svg width="23" height="23" viewBox="0 0 23 23" fill="none" xmlns="http://www.w3.org/2000/svg">
<path d="M11.6885 0L15.082 7.62845L23 8.78522L17.7213 14.2148L19.667 23L11.6885 19.0711L3.71006 23L5.27869 14.2148L0 8.78522L7.91803 7.62845L11.6885 0Z" fill="#E8FD65"/>
<path d="M11.6647 1.17663L14.6251 7.83167L14.7371 8.08338L15.0097 8.1232L21.9592 9.13847L17.3628 13.8662L17.1748 14.0596L17.2331 14.3229L18.9536 22.0914L11.9094 18.6226L11.6885 18.5138L11.4676 18.6226L4.37604 22.1147L5.7709 14.3027L5.81599 14.0502L5.63719 13.8662L1.04079 9.13847L7.99031 8.1232L8.24999 8.08526L8.36627 7.85L11.6647 1.17663Z" stroke="black" stroke-opacity="0.2"/>
</svg>
